:FULLY-SPECIFIED
:FORCE-ALL-JOINTS-BE-3DOF
:DEGREES
713
root 5.52438 21.44 7.38268 -92.0492 -85.8273 108.341
lfemur -34.9391 -12.3139 9.95949
ltibia 72.5809 0 0
lfoot 6.19261 -8.2663 0
ltoes 30.7894 0 0
rfemur -31.6863 -1.36777 -0.502564
rtibia 85.1191 0 0
rfoot 20.0721 -19.1373 0
rtoes 38.6284 0 0
lowerback 6.0562 -0.764143 -1.82095
upperback -1.28559 -1.25112 -1.61077
thorax -4.72863 -0.59874 -0.519854
lowerneck -6.82479 -6.17612 -2.20992
upperneck -0.168651 -8.21398 4.85737
head 1.42106 -4.0419 1.61627
lclavicle 1.18844e-14 2.11801e-14 0
lhumerus 1.48193 -20.4398 15.526
lradius 46.7745 0 0
lwrist 23.8892 0 0
lhand -21.6791 -3.17216 0
lfingers 7.12502 0 0
lthumb 4.71857 26.7539 0
rclavicle 1.18844e-14 2.11801e-14 0
rhumerus -12.3814 -3.50561 -25.9258
rradius 99.3597 0 0
rwrist -9.62576 0 0
rhand -28.4175 -35.7231 0
rfingers 7.12502 0 0
rthumb -1.78897 -785.68 0
714
root 5.5071 21.4863 7.59639 -117.155 -86.5424 133.52
lfemur -34.2245 -13.4389 9.21504
ltibia 68.7254 0 0
lfoot 6.83466 -8.87427 0
ltoes 30.2953 0 0
rfemur -32.7972 -1.48105 -1.23483
rtibia 91.2684 0 0
rfoot 20.7398 -19.9263 0
rtoes 40.853 0 0
lowerback 6.02537 -0.655181 -1.7972
upperback -1.30535 -1.10224 -1.58851
thorax -4.73218 -0.525186 -0.525403
lowerneck -6.85462 -6.31865 -2.32528
upperneck -0.305733 -8.39247 4.87931
head 1.39498 -4.1332 1.63641
lclavicle 1.24204e-14 2.66739e-14 0
lhumerus -0.199947 -20.3369 16.0932
lradius 45.6771 0 0
lwrist 23.1907 0 0
lhand -21.9583 -3.26622 0
lfingers 7.12502 0 0
lthumb 4.44898 26.6662 0
rclavicle 1.24204e-14 2.66739e-14 0
rhumerus -11.5923 -2.6464 -26.7686
rradius 99.3062 0 0
rwrist -9.75193 0 0
rhand -27.4544 -34.7883 0
rfingers 7.12502 0 0
rthumb -0.858816 -784.757 0
715
root 5.49097 21.5295 7.79601 -140.605 -87.2103 157.04
lfemur -33.5571 -14.4896 8.51967
ltibia 65.1241 0 0
lfoot 7.43438 -9.44215 0
ltoes 29.8338 0 0
rfemur -33.8349 -1.58686 -1.91882
rtibia 97.0122 0 0
rfoot 21.3635 -20.6634 0
rtoes 42.9309 0 0
lowerback 5.99658 -0.553404 -1.77502
upperback -1.3238 -0.963173 -1.56773
thorax -4.7355 -0.456483 -0.530585
lowerneck -6.88249 -6.45178 -2.43303
upperneck -0.433777 -8.5592 4.89979
head 1.37063 -4.21848 1.65523
lclavicle 1.2921e-14 3.18055e-14 0
lhumerus -1.77093 -20.2407 16.623
lradius 44.6521 0 0
lwrist 22.5382 0 0
lhand -22.2191 -3.35407 0
lfingers 7.12502 0 0
lthumb 4.19717 26.5843 0
rclavicle 1.2921e-14 3.18055e-14 0
rhumerus -10.8552 -1.84384 -27.5558
rradius 99.2563 0 0
rwrist -9.86977 0 0
rhand -26.5547 -33.9151 0
rfingers 7.12502 0 0
rthumb 0.0100137 -783.895 0
716
root 5.46086 21.4831 7.9994 -143.743 -85.4786 160.461
lfemur -32.9128 -15.2198 8.03662
ltibia 61.5329 0 0
lfoot 7.82783 -10.8813 0
ltoes 29.2769 0 0
rfemur -33.8878 -2.68692 -2.79277
rtibia 101.211 0 0
rfoot 21.7872 -20.7706 0
rtoes 43.7054 0 0
lowerback 5.71529 -0.30793 -1.65134
upperback -1.41606 -0.620974 -1.55248
thorax -4.67035 -0.289912 -0.613772
lowerneck -6.95847 -6.57651 -2.53603
upperneck -0.598983 -8.71334 4.85865
head 1.33935 -4.29847 1.65304
lclavicle 1.09654e-14 2.52972e-14 0
lhumerus -3.65207 -20.1657 17.1943
lradius 44.575 0 0
lwrist 22.5869 0 0
lhand -22.4932 -3.44645 0
lfingers 7.12502 0 0
lthumb 3.93243 26.4961 0
rclavicle 1.09654e-14 2.52972e-14 0
rhumerus -9.84787 -1.32965 -27.6774
rradius 99.3411 0 0
rwrist -10.0796 0 0
rhand -26.0821 -33.2081 0
rfingers 7.12502 0 0
rthumb 0.466488 -783.185 0
717
root 5.42863 21.4334 8.21715 -147.103 -83.6247 164.123
lfemur -32.2231 -16.0016 7.51948
ltibia 57.6882 0 0
lfoot 8.24905 -12.4221 0
ltoes 28.6807 0 0
rfemur -33.9444 -3.86463 -3.72841
rtibia 105.707 0 0
rfoot 22.2408 -20.8854 0
rtoes 44.5347 0 0
lowerback 5.41414 -0.0451277 -1.51893
upperback -1.51483 -0.254619 -1.53615
thorax -4.6006 -0.111582 -0.702832
lowerneck -7.03981 -6.71005 -2.6463
upperneck -0.77585 -8.87837 4.8146
head 1.30586 -4.38411 1.6507
lclavicle 8.87168e-15 1.83294e-14 0
lhumerus -5.666 -20.0855 17.806
lradius 44.4924 0 0
lwrist 22.6391 0 0
lhand -22.7867 -3.54536 0
lfingers 7.12502 0 0
lthumb 3.649 26.4017 0
rclavicle 8.87168e-15 1.83294e-14 0
rhumerus -8.76943 -0.779174 -27.8076
rradius 99.4318 0 0
rwrist -10.3042 0 0
rhand -25.576 -32.4511 0
rfingers 7.12502 0 0
rthumb 0.955185 -782.424 0
718
root 5.39533 21.3821 8.44207 -150.574 -81.7096 167.906
lfemur -31.5107 -16.8091 6.98528
ltibia 53.7167 0 0
lfoot 8.68416 -14.0137 0
ltoes 28.0649 0 0
rfemur -34.0029 -5.08116 -4.6949
rtibia 110.35 0 0
rfoot 22.7093 -21.0039 0
rtoes 45.3912 0 0
lowerback 5.10307 0.226338 -1.38215
upperback -1.61686 0.123814 -1.51928
thorax -4.52855 0.072626 -0.794828
lowerneck -7.12383 -6.84798 -2.76021
upperneck -0.958548 -9.04883 4.7691
head 1.27126 -4.47257 1.64829
lclavicle 6.70898e-15 1.11319e-14 0
lhumerus -7.74632 -20.0026 18.4378
lradius 44.4071 0 0
lwrist 22.6931 0 0
lhand -23.0899 -3.64752 0
lfingers 7.12502 0 0
lthumb 3.35623 26.3041 0
rclavicle 6.70898e-15 1.11319e-14 0
rhumerus -7.65544 -0.210545 -27.9422
rradius 99.5255 0 0
rwrist -10.5362 0 0
rhand -25.0533 -31.6693 0
rfingers 7.12502 0 0
rthumb 1.45999 -781.639 0
719
root 5.36204 21.3308 8.667 -154.045 -79.7945 171.69
lfemur -30.7982 -17.6167 6.45108
ltibia 49.7453 0 0
lfoot 9.11926 -15.6053 0
ltoes 27.4491 0 0
rfemur -34.0615 -6.2977 -5.66139
rtibia 114.994 0 0
rfoot 23.1778 -21.1225 0
rtoes 46.2477 0 0
lowerback 4.792 0.497804 -1.24538
upperback -1.71889 0.502246 -1.50242
thorax -4.45651 0.256834 -0.886823
lowerneck -7.20785 -6.98592 -2.87412
upperneck -1.14125 -9.21929 4.72361
head 1.23666 -4.56104 1.64587
lclavicle 4.54628e-15 3.93445e-15 0
lhumerus -9.82663 -19.9197 19.0696
lradius 44.3219 0 0
lwrist 22.747 0 0
lhand -23.3931 -3.74968 0
lfingers 7.12502 0 0
lthumb 3.06346 26.2065 0
rclavicle 4.54628e-15 3.93445e-15 0
rhumerus -6.54146 0.358084 -28.0767
rradius 99.6193 0 0
rwrist -10.7683 0 0
rhand -24.5307 -30.8874 0
rfingers 7.12502 0 0
rthumb 1.9648 -780.854 0
